<svg width="12" height="13" viewBox="0 0 12 13" fill="none" xmlns="http://www.w3.org/2000/svg">
<path d="M2.17605 11.6183C1.96525 11.7967 1.93896 12.1122 2.11733 12.323C2.2957 12.5338 2.61119 12.5601 2.82199 12.3817L2.17605 11.6183ZM2.83816 0.132598C2.63525 -0.0547037 2.31892 -0.0420504 2.13162 0.16086C1.94432 0.36377 1.95697 0.680099 2.15988 0.867402L2.83816 0.132598ZM8.99902 6.5L9.32199 6.88169C9.43139 6.78912 9.49581 6.65406 9.49891 6.51079C9.502 6.36752 9.44347 6.2298 9.33816 6.1326L8.99902 6.5ZM2.82199 12.3817L9.32199 6.88169L8.67605 6.11831L2.17605 11.6183L2.82199 12.3817ZM9.33816 6.1326L2.83816 0.132598L2.15988 0.867402L8.65988 6.8674L9.33816 6.1326Z" fill="#8F8F8F"/>
</svg>
