<svg width="27" height="30" viewBox="0 0 27 30" fill="none" xmlns="http://www.w3.org/2000/svg">
<g clip-path="url(#clip0)">
<path d="M13.8007 30C11.7193 30 10.031 28.3213 10.031 26.25H17.5704C17.5704 28.3213 15.882 30 13.8007 30ZM1.10806 21.2279C2.24656 20.0115 4.37683 18.1816 4.37683 12.1875C4.37683 7.63477 7.58726 3.99023 11.9162 3.09609V1.875C11.9162 0.839648 12.76 0 13.8007 0C14.8414 0 15.6852 0.839648 15.6852 1.875V3.09609C20.0141 3.99023 23.2245 7.63477 23.2245 12.1875C23.2245 18.1816 25.3548 20.0115 26.4933 21.2279C26.8469 21.6059 27.0036 22.0576 27.0007 22.5C26.9942 23.4609 26.2358 24.375 25.1091 24.375H2.4923C1.36558 24.375 0.606585 23.4609 0.600691 22.5C0.597744 22.0576 0.754494 21.6053 1.10806 21.2279Z" fill="white"/>
</g>
<defs>
<clipPath id="clip0">
<rect width="26.4" height="30" fill="white" transform="matrix(-1 0 0 1 27 0)"/>
</clipPath>
</defs>
</svg>
