<svg width="34" height="38" viewBox="0 0 34 38" fill="none" xmlns="http://www.w3.org/2000/svg">
<path d="M22.1 23.75H24.65C25.075 23.75 25.5 23.275 25.5 22.8V12.825C25.5 12.35 25.075 11.875 24.65 11.875H22.1C21.675 11.875 21.25 12.35 21.25 12.825V22.8C21.25 23.275 21.675 23.75 22.1 23.75ZM28.475 23.75H31.025C31.45 23.75 31.875 23.275 31.875 22.8V5.7C31.875 5.225 31.45 4.75 31.025 4.75H28.475C28.05 4.75 27.625 5.225 27.625 5.7V22.8C27.625 23.275 28.05 23.75 28.475 23.75ZM9.35 23.75H11.9C12.325 23.75 12.75 23.275 12.75 22.8V17.575C12.75 17.1 12.325 16.625 11.9 16.625H9.35C8.925 16.625 8.5 17.1 8.5 17.575V22.8C8.5 23.275 8.925 23.75 9.35 23.75ZM15.725 23.75H18.275C18.7 23.75 19.125 23.275 19.125 22.8V8.075C19.125 7.6 18.7 7.125 18.275 7.125H15.725C15.3 7.125 14.875 7.6 14.875 8.075V22.8C14.875 23.275 15.3 23.75 15.725 23.75ZM32.9375 28.5H4.25V5.9375C4.25 5.28141 3.77453 4.75 3.1875 4.75H1.0625C0.475469 4.75 0 5.28141 0 5.9375V30.875C0 32.1864 0.951602 33.25 2.125 33.25H32.9375C33.5245 33.25 34 32.7186 34 32.0625V29.6875C34 29.0314 33.5245 28.5 32.9375 28.5Z" fill="url(#paint0_linear)"/>
<defs>
<linearGradient id="paint0_linear" x1="8.49889" y1="11.875" x2="43.46" y2="13.0365" gradientUnits="userSpaceOnUse">
<stop stop-color="#3585CA"/>
<stop offset="1" stop-color="#673280"/>
</linearGradient>
</defs>
</svg>
