<svg width="34" height="30" viewBox="0 0 34 30" fill="none" xmlns="http://www.w3.org/2000/svg">
<g clip-path="url(#clip0)">
<path d="M16.2251 8.68711L5.55556 17.5846V27.1875C5.55556 27.4361 5.65312 27.6746 5.82676 27.8504C6.00041 28.0262 6.23592 28.125 6.48149 28.125L12.9664 28.108C13.2112 28.1068 13.4455 28.0075 13.6182 27.8318C13.7908 27.6561 13.8877 27.4183 13.8877 27.1705V21.5625C13.8877 21.3139 13.9853 21.0754 14.1589 20.8996C14.3326 20.7238 14.5681 20.625 14.8137 20.625H18.5174C18.7629 20.625 18.9984 20.7238 19.1721 20.8996C19.3457 21.0754 19.4433 21.3139 19.4433 21.5625V27.1664C19.4429 27.2898 19.4666 27.412 19.5129 27.5261C19.5593 27.6402 19.6274 27.7438 19.7135 27.8312C19.7995 27.9186 19.9017 27.9879 20.0142 28.0352C20.1267 28.0825 20.2474 28.1068 20.3692 28.1068L26.8518 28.125C27.0974 28.125 27.3329 28.0262 27.5066 27.8504C27.6802 27.6746 27.7778 27.4361 27.7778 27.1875V17.5781L17.1105 8.68711C16.9851 8.58476 16.8289 8.52895 16.6678 8.52895C16.5067 8.52895 16.3505 8.58476 16.2251 8.68711ZM33.0787 14.7346L28.2407 10.6969V2.58105C28.2407 2.39457 28.1676 2.21573 28.0373 2.08387C27.9071 1.95201 27.7305 1.87793 27.5463 1.87793H24.3055C24.1214 1.87793 23.9447 1.95201 23.8145 2.08387C23.6843 2.21573 23.6111 2.39457 23.6111 2.58105V6.83555L18.43 2.51953C17.9328 2.10526 17.3088 1.87876 16.6649 1.87876C16.021 1.87876 15.3971 2.10526 14.8999 2.51953L0.25117 14.7346C0.18085 14.7934 0.122672 14.8657 0.079959 14.9473C0.0372461 15.029 0.0108358 15.1183 0.00223703 15.2103C-0.00636169 15.3022 0.00301973 15.395 0.0298453 15.4833C0.0566708 15.5716 0.100415 15.6536 0.158578 15.7248L1.63427 17.5412C1.69228 17.6126 1.76362 17.6718 1.84422 17.7152C1.92483 17.7587 2.0131 17.7856 2.104 17.7945C2.1949 17.8033 2.28663 17.794 2.37395 17.7669C2.46126 17.7398 2.54245 17.6956 2.61286 17.6367L16.2251 6.28477C16.3505 6.18242 16.5067 6.1266 16.6678 6.1266C16.8289 6.1266 16.9851 6.18242 17.1105 6.28477L30.7234 17.6367C30.7937 17.6956 30.8747 17.7399 30.9619 17.7671C31.0491 17.7942 31.1407 17.8037 31.2316 17.795C31.3224 17.7863 31.4106 17.7596 31.4912 17.7163C31.5718 17.6731 31.6433 17.6142 31.7014 17.543L33.1771 15.7266C33.2352 15.655 33.2787 15.5725 33.3052 15.4838C33.3317 15.3951 33.3407 15.302 33.3315 15.2099C33.3224 15.1177 33.2954 15.0282 33.252 14.9467C33.2086 14.8651 33.1497 14.793 33.0787 14.7346Z" fill="white"/>
</g>
<defs>
<clipPath id="clip0">
<rect width="33.3333" height="30" fill="white"/>
</clipPath>
</defs>
</svg>
