<svg width="32" height="25" viewBox="0 0 32 25" fill="none" xmlns="http://www.w3.org/2000/svg">
<path d="M22.4 12.5C19.305 12.5 16.8 10.0537 16.8 7.03125C16.8 4.00879 19.305 1.5625 22.4 1.5625C25.495 1.5625 28 4.00879 28 7.03125C28 10.0537 25.495 12.5 22.4 12.5ZM18.56 14.0625H18.975C20.015 14.5508 21.17 14.8438 22.4 14.8438C23.63 14.8438 24.78 14.5508 25.825 14.0625H26.24C29.42 14.0625 32 16.582 32 19.6875V21.0938C32 22.3877 30.925 23.4375 29.6 23.4375H15.2C13.875 23.4375 12.8 22.3877 12.8 21.0938V19.6875C12.8 16.582 15.38 14.0625 18.56 14.0625ZM8 12.5C5.35 12.5 3.2 10.4004 3.2 7.8125C3.2 5.22461 5.35 3.125 8 3.125C10.65 3.125 12.8 5.22461 12.8 7.8125C12.8 10.4004 10.65 12.5 8 12.5ZM5.6 14.0625H5.79C6.485 14.2969 7.22 14.4531 8 14.4531C8.78 14.4531 9.515 14.2969 10.21 14.0625H10.4C11.42 14.0625 12.36 14.3506 13.185 14.8145C11.965 16.0986 11.2 17.8027 11.2 19.6875V21.5625C11.2 21.6699 11.225 21.7725 11.23 21.875H2.4C1.075 21.875 0 20.8252 0 19.5312C0 16.5088 2.505 14.0625 5.6 14.0625Z" fill="url(#paint0_linear)"/>
<defs>
<linearGradient id="paint0_linear" x1="24.001" y1="7.03125" x2="-8.88525" y2="8.37096" gradientUnits="userSpaceOnUse">
<stop stop-color="#3585CA"/>
<stop offset="1" stop-color="#673280"/>
</linearGradient>
</defs>
</svg>
