<svg width="34" height="28" viewBox="0 0 34 28" fill="none" xmlns="http://www.w3.org/2000/svg">
<g clip-path="url(#clip0)">
<path d="M25.924 10.501H17.849V13.5635C17.849 15.7346 16.1331 17.501 14.024 17.501C11.915 17.501 10.199 15.7346 10.199 13.5635V6.91348L6.7512 9.0463C5.72589 9.6752 5.09901 10.8182 5.09901 12.0432V14.6299L0.849014 17.1565C0.0362019 17.6377 -0.245361 18.7096 0.227452 19.5463L4.47745 27.126C4.94495 27.9627 5.9862 28.2471 6.79901 27.7658L12.2921 24.501H19.549C21.4243 24.501 22.949 22.9315 22.949 21.001H23.799C24.7393 21.001 25.499 20.219 25.499 19.251V15.751H25.924C26.6306 15.751 27.199 15.1658 27.199 14.4385V11.8135C27.199 11.0861 26.6306 10.501 25.924 10.501ZM33.7706 8.45567L29.5206 0.875984C29.0531 0.039265 28.0118 -0.24511 27.199 0.23614L21.7059 3.50098H16.2765C15.639 3.50098 15.0175 3.68692 14.4756 4.03145L12.6959 5.17442C12.1965 5.49161 11.899 6.05489 11.899 6.65645V13.5635C11.899 14.7721 12.85 15.751 14.024 15.751C15.1981 15.751 16.149 14.7721 16.149 13.5635V8.75098H25.924C27.5656 8.75098 28.899 10.1236 28.899 11.8135V13.3721L33.149 10.8455C33.9618 10.3588 34.2381 9.29239 33.7706 8.45567Z" fill="url(#paint0_linear)"/>
</g>
<defs>
<linearGradient id="paint0_linear" x1="8.49671" y1="7.00157" x2="43.4565" y2="8.18386" gradientUnits="userSpaceOnUse">
<stop stop-color="#3585CA"/>
<stop offset="1" stop-color="#673280"/>
</linearGradient>
<clipPath id="clip0">
<rect width="34" height="28" fill="white"/>
</clipPath>
</defs>
</svg>
