<svg width="22" height="27" viewBox="0 0 22 27" fill="none" xmlns="http://www.w3.org/2000/svg">
<g clip-path="url(#clip0)">
<path d="M0.589287 24.75H1.57143V1.2375C1.57143 0.554039 2.09908 0 2.75 0H19.25C19.9009 0 20.4286 0.554039 20.4286 1.2375V24.75H21.4107C21.7361 24.75 22 25.027 22 25.3687V26.4H0V25.3687C0 25.027 0.263853 24.75 0.589287 24.75ZM15.7143 3.91875C15.7143 3.57705 15.4504 3.3 15.125 3.3H13.1607C12.8353 3.3 12.5714 3.57705 12.5714 3.91875V5.98125C12.5714 6.32295 12.8353 6.6 13.1607 6.6H15.125C15.4504 6.6 15.7143 6.32295 15.7143 5.98125V3.91875ZM15.7143 8.86875C15.7143 8.52705 15.4504 8.25 15.125 8.25H13.1607C12.8353 8.25 12.5714 8.52705 12.5714 8.86875V10.9312C12.5714 11.273 12.8353 11.55 13.1607 11.55H15.125C15.4504 11.55 15.7143 11.273 15.7143 10.9312V8.86875ZM13.1607 16.5H15.125C15.4504 16.5 15.7143 16.223 15.7143 15.8812V13.8187C15.7143 13.477 15.4504 13.2 15.125 13.2H13.1607C12.8353 13.2 12.5714 13.477 12.5714 13.8187V15.8812C12.5714 16.223 12.8353 16.5 13.1607 16.5ZM9.42857 24.75H12.5714V20.4187C12.5714 20.077 12.3076 19.8 11.9821 19.8H10.0179C9.69242 19.8 9.42857 20.077 9.42857 20.4187V24.75ZM6.28572 15.8812C6.28572 16.223 6.54957 16.5 6.875 16.5H8.83929C9.16472 16.5 9.42857 16.223 9.42857 15.8812V13.8187C9.42857 13.477 9.16472 13.2 8.83929 13.2H6.875C6.54957 13.2 6.28572 13.477 6.28572 13.8187V15.8812ZM6.28572 10.9312C6.28572 11.273 6.54957 11.55 6.875 11.55H8.83929C9.16472 11.55 9.42857 11.273 9.42857 10.9312V8.86875C9.42857 8.52705 9.16472 8.25 8.83929 8.25H6.875C6.54957 8.25 6.28572 8.52705 6.28572 8.86875V10.9312ZM6.28572 5.98125C6.28572 6.32295 6.54957 6.6 6.875 6.6H8.83929C9.16472 6.6 9.42857 6.32295 9.42857 5.98125V3.91875C9.42857 3.57705 9.16472 3.3 8.83929 3.3H6.875C6.54957 3.3 6.28572 3.57705 6.28572 3.91875V5.98125Z" fill="url(#paint0_linear)"/>
</g>
<defs>
<linearGradient id="paint0_linear" x1="16.5007" y1="6.6" x2="-6.13394" y2="7.12527" gradientUnits="userSpaceOnUse">
<stop stop-color="#3585CA"/>
<stop offset="1" stop-color="#673280"/>
</linearGradient>
<clipPath id="clip0">
<rect width="22" height="26.4" fill="white" transform="matrix(-1 0 0 1 22 0)"/>
</clipPath>
</defs>
</svg>
