<svg width="27" height="30" viewBox="0 0 27 30" fill="none" xmlns="http://www.w3.org/2000/svg">
<g clip-path="url(#clip0)">
<path d="M1.6118 28.125H2.7764V1.40625C2.7764 0.62959 3.40208 0 4.17391 0H23.7391C24.511 0 25.1366 0.62959 25.1366 1.40625V28.125H26.3012C26.6871 28.125 27 28.4398 27 28.8281V30H0.913044V28.8281C0.913044 28.4398 1.22591 28.125 1.6118 28.125ZM19.5466 4.45312C19.5466 4.06482 19.2337 3.75 18.8478 3.75H16.5186C16.1327 3.75 15.8199 4.06482 15.8199 4.45312V6.79688C15.8199 7.18518 16.1327 7.5 16.5186 7.5H18.8478C19.2337 7.5 19.5466 7.18518 19.5466 6.79688V4.45312ZM19.5466 10.0781C19.5466 9.68982 19.2337 9.375 18.8478 9.375H16.5186C16.1327 9.375 15.8199 9.68982 15.8199 10.0781V12.4219C15.8199 12.8102 16.1327 13.125 16.5186 13.125H18.8478C19.2337 13.125 19.5466 12.8102 19.5466 12.4219V10.0781ZM16.5186 18.75H18.8478C19.2337 18.75 19.5466 18.4352 19.5466 18.0469V15.7031C19.5466 15.3148 19.2337 15 18.8478 15H16.5186C16.1327 15 15.8199 15.3148 15.8199 15.7031V18.0469C15.8199 18.4352 16.1327 18.75 16.5186 18.75ZM12.0932 28.125H15.8199V23.2031C15.8199 22.8148 15.507 22.5 15.1211 22.5H12.7919C12.406 22.5 12.0932 22.8148 12.0932 23.2031V28.125ZM8.36646 18.0469C8.36646 18.4352 8.67933 18.75 9.06522 18.75H11.3944C11.7803 18.75 12.0932 18.4352 12.0932 18.0469V15.7031C12.0932 15.3148 11.7803 15 11.3944 15H9.06522C8.67933 15 8.36646 15.3148 8.36646 15.7031V18.0469ZM8.36646 12.4219C8.36646 12.8102 8.67933 13.125 9.06522 13.125H11.3944C11.7803 13.125 12.0932 12.8102 12.0932 12.4219V10.0781C12.0932 9.68982 11.7803 9.375 11.3944 9.375H9.06522C8.67933 9.375 8.36646 9.68982 8.36646 10.0781V12.4219ZM8.36646 6.79688C8.36646 7.18518 8.67933 7.5 9.06522 7.5H11.3944C11.7803 7.5 12.0932 7.18518 12.0932 6.79688V4.45312C12.0932 4.06482 11.7803 3.75 11.3944 3.75H9.06522C8.67933 3.75 8.36646 4.06482 8.36646 4.45312V6.79688Z" fill="white"/>
</g>
<defs>
<clipPath id="clip0">
<rect width="26.087" height="30" fill="white" transform="matrix(-1 0 0 1 27 0)"/>
</clipPath>
</defs>
</svg>
