<svg width="35" height="35" viewBox="0 0 35 35" fill="none" xmlns="http://www.w3.org/2000/svg">
<g clip-path="url(#clip0)">
<path d="M17.4357 10.4616C19.6929 10.4616 21.5226 8.63182 21.5226 6.37467C21.5226 4.11752 19.6929 2.28773 17.4357 2.28773C15.1785 2.28773 13.3488 4.11752 13.3488 6.37467C13.3488 8.63182 15.1785 10.4616 17.4357 10.4616Z" fill="url(#paint0_linear)"/>
<path d="M31.7422 17.6187L27.9331 16.8241C26.6354 16.5523 25.3542 17.147 24.6768 18.2045C24.019 17.8665 23.3115 17.5751 22.559 17.3333V15.0683C22.5605 13.3545 21.1576 11.9531 19.4499 11.9531H15.5552C13.8385 11.9531 12.4416 13.3545 12.4416 15.0683V17.3453C11.6966 17.5826 10.9967 17.874 10.3343 18.2134C9.6569 17.1515 8.37415 16.5523 7.0749 16.8241L3.2628 17.6187C1.58956 17.9686 0.503593 19.6284 0.85356 21.3076L1.81036 25.8782C2.15733 27.5529 3.81853 28.6388 5.4933 28.2889L6.69938 28.0365C7.30315 28.9287 8.13831 29.7473 9.20771 30.4472C11.4351 31.9072 14.3776 32.7123 17.5002 32.7123C22.2781 32.7123 26.3936 30.7912 28.2891 28.032L29.5148 28.2889C31.188 28.6373 32.8492 27.5529 33.1962 25.8782L34.1544 21.3076C34.5029 19.6284 33.4169 17.9686 31.7422 17.6187ZM17.4987 31.1517C14.6779 31.1517 12.0344 30.4412 10.0623 29.142C9.38638 28.7004 8.82613 28.2093 8.37708 27.6836L9.3008 27.4898C10.977 27.1414 12.063 25.4816 11.713 23.8054L10.8554 19.6959C11.3556 19.427 11.8813 19.1912 12.44 18.99V19.7395C12.44 21.4503 13.8399 22.8517 15.5536 22.8517H19.4483C21.1576 22.8517 22.5575 21.4488 22.5575 19.7395V18.9509C23.1267 19.1537 23.6614 19.3865 24.1571 19.6508L23.2874 23.8069C22.9404 25.4832 24.0249 27.1429 25.7011 27.4913L26.6338 27.6866C24.8946 29.7458 21.4535 31.1517 17.4987 31.1517Z" fill="url(#paint1_linear)"/>
<path d="M30.9131 15.8343C33.1703 15.8343 35 14.0045 35 11.7473C35 9.4902 33.1703 7.66042 30.9131 7.66042C28.656 7.66042 26.8262 9.4902 26.8262 11.7473C26.8262 14.0045 28.656 15.8343 30.9131 15.8343Z" fill="url(#paint2_linear)"/>
<path d="M4.92548 15.7486C7.13641 15.286 8.54833 13.1187 8.09168 10.9092C7.62606 8.70125 5.46318 7.28335 3.25071 7.74598C1.04278 8.20708 -0.375125 10.373 0.0875053 12.5824C0.548673 14.7934 2.71455 16.2098 4.92548 15.7486Z" fill="url(#paint3_linear)"/>
</g>
<defs>
<linearGradient id="paint0_linear" x1="15.392" y1="4.3312" x2="23.7997" y2="4.56534" gradientUnits="userSpaceOnUse">
<stop stop-color="#3585CA"/>
<stop offset="1" stop-color="#673280"/>
</linearGradient>
<linearGradient id="paint1_linear" x1="9.14476" y1="17.1429" x2="43.4902" y2="18.6832" gradientUnits="userSpaceOnUse">
<stop stop-color="#3585CA"/>
<stop offset="1" stop-color="#673280"/>
</linearGradient>
<linearGradient id="paint2_linear" x1="28.8694" y1="9.70388" x2="37.2771" y2="9.93802" gradientUnits="userSpaceOnUse">
<stop stop-color="#3585CA"/>
<stop offset="1" stop-color="#673280"/>
</linearGradient>
<linearGradient id="paint3_linear" x1="2.04409" y1="9.70278" x2="10.4554" y2="9.93703" gradientUnits="userSpaceOnUse">
<stop stop-color="#3585CA"/>
<stop offset="1" stop-color="#673280"/>
</linearGradient>
<clipPath id="clip0">
<rect width="35" height="35" fill="white"/>
</clipPath>
</defs>
</svg>
