<svg width="30" height="27" viewBox="0 0 30 27" fill="none" xmlns="http://www.w3.org/2000/svg">
<path d="M21.6667 10.0658C21.6667 5.43133 16.8177 1.67763 10.8333 1.67763C4.84896 1.67763 0 5.43133 0 10.0658C0 11.864 0.734375 13.5207 1.97917 14.889C1.28125 16.4722 0.130208 17.7305 0.114583 17.7462C0 17.8668 -0.03125 18.045 0.0364583 18.2023C0.104167 18.3596 0.25 18.4539 0.416667 18.4539C2.32292 18.4539 3.90104 17.8091 5.03646 17.1433C6.71354 17.9664 8.69792 18.4539 10.8333 18.4539C16.8177 18.4539 21.6667 14.7002 21.6667 10.0658ZM28.0208 21.5995C29.2656 20.2364 30 18.5745 30 16.7763C30 13.269 27.2135 10.265 23.2656 9.01202C23.3125 9.35804 23.3333 9.70929 23.3333 10.0658C23.3333 15.6177 17.724 20.1316 10.8333 20.1316C10.2708 20.1316 9.72396 20.0896 9.18229 20.032C10.8229 23.0465 14.6771 25.1645 19.1667 25.1645C21.3021 25.1645 23.2865 24.6822 24.9635 23.8538C26.099 24.5196 27.6771 25.1645 29.5833 25.1645C29.75 25.1645 29.901 25.0649 29.9635 24.9128C30.0312 24.7608 30 24.5825 29.8854 24.4567C29.8698 24.441 28.7188 23.188 28.0208 21.5995Z" fill="url(#paint0_linear)"/>
<defs>
<linearGradient id="paint0_linear" x1="7.49902" y1="7.54934" x2="38.3421" y2="8.64644" gradientUnits="userSpaceOnUse">
<stop stop-color="#3585CA"/>
<stop offset="1" stop-color="#673280"/>
</linearGradient>
</defs>
</svg>
