<svg width="32" height="30" viewBox="0 0 32 30" fill="none" xmlns="http://www.w3.org/2000/svg">
<g clip-path="url(#clip0)">
<path d="M15.0589 8.45508L18.0739 9.29297C18.1763 9.31822 18.2679 9.37844 18.3345 9.46427C18.4011 9.55009 18.439 9.65672 18.4422 9.76758C18.4422 10.0371 18.215 10.2598 17.9356 10.2598H15.9578C15.7446 10.2591 15.5336 10.2154 15.3361 10.1309C15.045 10.002 14.7094 10.0312 14.4861 10.248L13.4306 11.2734C13.3817 11.3185 13.3396 11.371 13.3056 11.4293C13.262 11.5047 13.233 11.5884 13.2202 11.6757C13.2075 11.763 13.2112 11.852 13.2313 11.9378C13.2513 12.0235 13.2872 12.1042 13.337 12.1752C13.3867 12.2462 13.4493 12.3062 13.5211 12.3516C14.1057 12.7216 14.7602 12.9516 15.4383 13.0254V14.0625C15.4383 14.5781 15.8733 15 16.4033 15H17.3683C17.8989 15 18.3339 14.5781 18.3339 14.0625V13.0312C20.1633 12.8203 21.5472 11.2148 21.3061 9.33984C21.1311 7.99219 20.0583 6.91992 18.7194 6.54492L15.7044 5.70703C15.602 5.68178 15.5104 5.62156 15.4438 5.53573C15.3772 5.44991 15.3393 5.34328 15.3361 5.23242C15.3361 4.96289 15.5633 4.74023 15.8428 4.74023H17.8206C18.0344 4.74058 18.2462 4.78435 18.4444 4.86914C18.735 4.99805 19.0711 4.96875 19.2944 4.75195L20.35 3.72656C20.3972 3.68245 20.4378 3.63109 20.4706 3.57422C20.5145 3.49885 20.5439 3.41505 20.5569 3.32764C20.57 3.24024 20.5665 3.15098 20.5467 3.065C20.5268 2.97903 20.491 2.89806 20.4414 2.82676C20.3917 2.75546 20.3291 2.69525 20.2572 2.64961C19.6725 2.27961 19.0178 2.04958 18.3394 1.97578V0.9375C18.3394 0.421875 17.905 0 17.3744 0H16.4094C15.8789 0 15.4444 0.421875 15.4444 0.9375V1.96875C13.6172 2.17969 12.2306 3.78516 12.4717 5.66016C12.6461 7.00781 13.7222 8.08008 15.0589 8.45508ZM31.4039 19.2246C30.7483 18.5977 29.7261 18.6387 29.0372 19.2246L23.9039 23.5547C23.2738 24.0879 22.4895 24.3774 21.6817 24.375H15.1111C14.8754 24.375 14.6493 24.2762 14.4826 24.1004C14.3159 23.9246 14.2222 23.6861 14.2222 23.4375C14.2222 23.1889 14.3159 22.9504 14.4826 22.7746C14.6493 22.5988 14.8754 22.5 15.1111 22.5H19.4606C20.3439 22.5 21.1667 21.8613 21.3078 20.9414C21.3252 20.8358 21.3337 20.7287 21.3333 20.6215C21.3324 20.1248 21.1448 19.6488 20.8115 19.2979C20.4782 18.9471 20.0265 18.75 19.5556 18.75H10.6667C9.16756 18.7504 7.71414 19.2943 6.55 20.2904L3.96667 22.5H0.888889C0.653141 22.5 0.427049 22.5988 0.26035 22.7746C0.0936505 22.9504 0 23.1889 0 23.4375L0 29.0625C0 29.3111 0.0936505 29.5496 0.26035 29.7254C0.427049 29.9012 0.653141 30 0.888889 30H20.7094C21.517 30.0007 22.3007 29.7114 22.9317 29.1797L31.3333 22.0898C31.5354 21.9194 31.6998 21.7044 31.815 21.4599C31.9301 21.2155 31.9933 20.9475 32.0001 20.6747C32.0069 20.4018 31.9571 20.1307 31.8542 19.8802C31.7513 19.6298 31.5978 19.406 31.4044 19.2246H31.4039Z" fill="url(#paint0_linear)"/>
</g>
<defs>
<linearGradient id="paint0_linear" x1="7.99913" y1="7.5" x2="40.9117" y2="8.47767" gradientUnits="userSpaceOnUse">
<stop stop-color="#3585CA"/>
<stop offset="1" stop-color="#673280"/>
</linearGradient>
<clipPath id="clip0">
<rect width="32" height="30" fill="white"/>
</clipPath>
</defs>
</svg>
