<svg width="25" height="20" viewBox="0 0 25 20" fill="none" xmlns="http://www.w3.org/2000/svg">
<g clip-path="url(#clip0)">
<path d="M20.0038 7.46182L19.6835 8.02042C19.5663 8.22745 19.3163 8.31339 19.0936 8.23136C18.6327 8.05948 18.2108 7.81339 17.8397 7.50479C17.66 7.35636 17.6132 7.09464 17.7303 6.89151L18.0507 6.33292C17.7811 6.02042 17.5702 5.65714 17.4296 5.26261H16.785C16.5507 5.26261 16.3475 5.09464 16.3085 4.86026C16.2303 4.39151 16.2264 3.89933 16.3085 3.41105C16.3475 3.17667 16.5507 3.0048 16.785 3.0048H17.4296C17.5702 2.61026 17.7811 2.24698 18.0507 1.93448L17.7303 1.37589C17.6132 1.17276 17.6561 0.911046 17.8397 0.762608C18.2108 0.454014 18.6366 0.207921 19.0936 0.0360458C19.3163 -0.0459854 19.5663 0.0399521 19.6835 0.246983L20.0038 0.805577C20.4139 0.731358 20.8319 0.731358 21.2421 0.805577L21.5624 0.246983C21.6796 0.0399521 21.9296 -0.0459854 22.1522 0.0360458C22.6132 0.207921 23.035 0.454014 23.4061 0.762608C23.5858 0.911046 23.6327 1.17276 23.5155 1.37589L23.1952 1.93448C23.4647 2.24698 23.6757 2.61026 23.8163 3.0048H24.4608C24.6952 3.0048 24.8983 3.17276 24.9374 3.40714C25.0155 3.87589 25.0194 4.36808 24.9374 4.85636C24.8983 5.09073 24.6952 5.26261 24.4608 5.26261H23.8163C23.6757 5.65714 23.4647 6.02042 23.1952 6.33292L23.5155 6.89151C23.6327 7.09464 23.5897 7.35636 23.4061 7.50479C23.035 7.81339 22.6093 8.05948 22.1522 8.23136C21.9296 8.31339 21.6796 8.22745 21.5624 8.02042L21.2421 7.46182C20.8358 7.53604 20.4139 7.53604 20.0038 7.46182ZM19.5936 5.16495C21.0975 6.3212 22.8124 4.60636 21.6561 3.10245C20.1522 1.9423 18.4374 3.66104 19.5936 5.16495ZM15.0897 11.1767L16.4061 11.8329C16.8007 12.0595 16.9725 12.5399 16.8163 12.9696C16.4686 13.9149 15.785 14.7821 15.1522 15.5399C14.8632 15.8876 14.3632 15.9735 13.9686 15.747L12.8319 15.0907C12.2069 15.6259 11.4803 16.0517 10.6874 16.329V17.6415C10.6874 18.0946 10.3632 18.4853 9.91785 18.5634C8.95691 18.7274 7.9491 18.7353 6.953 18.5634C6.50378 18.4853 6.17175 18.0985 6.17175 17.6415V16.329C5.37878 16.0478 4.65222 15.6259 4.02722 15.0907L2.8905 15.7431C2.49988 15.9696 1.99597 15.8837 1.70691 15.536C1.0741 14.7782 0.406128 13.911 0.0584723 12.9696C-0.0977777 12.5439 0.0740972 12.0634 0.468629 11.8329L1.76941 11.1767C1.61707 10.3603 1.61707 9.52042 1.76941 8.70011L0.468629 8.03995C0.0740972 7.81339 -0.101684 7.33292 0.0584723 6.90714C0.406128 5.96183 1.0741 5.09464 1.70691 4.33683C1.99597 3.98917 2.49597 3.90323 2.8905 4.12979L4.02722 4.78604C4.65222 4.25089 5.37878 3.82511 6.17175 3.54776V2.23136C6.17175 1.78214 6.49207 1.39151 6.93738 1.31339C7.89832 1.14933 8.91004 1.14151 9.90613 1.30948C10.3553 1.38761 10.6874 1.77433 10.6874 2.23136V3.54386C11.4803 3.82511 12.2069 4.24698 12.8319 4.78214L13.9686 4.12589C14.3593 3.89933 14.8632 3.98526 15.1522 4.33292C15.785 5.09073 16.4491 5.95792 16.7968 6.90323C16.953 7.32901 16.8007 7.80948 16.4061 8.03995L15.0897 8.6962C15.2421 9.51651 15.2421 10.3564 15.0897 11.1767ZM10.496 12.0009C12.8085 8.99307 9.37488 5.55948 6.36707 7.87198C4.05457 10.8798 7.48816 14.3134 10.496 12.0009ZM20.0038 19.1376L19.6835 19.6962C19.5663 19.9032 19.3163 19.9892 19.0936 19.9071C18.6327 19.7353 18.2108 19.4892 17.8397 19.1806C17.66 19.0321 17.6132 18.7704 17.7303 18.5673L18.0507 18.0087C17.7811 17.6962 17.5702 17.3329 17.4296 16.9384H16.785C16.5507 16.9384 16.3475 16.7704 16.3085 16.536C16.2303 16.0673 16.2264 15.5751 16.3085 15.0868C16.3475 14.8524 16.5507 14.6806 16.785 14.6806H17.4296C17.5702 14.286 17.7811 13.9228 18.0507 13.6103L17.7303 13.0517C17.6132 12.8485 17.6561 12.5868 17.8397 12.4384C18.2108 12.1298 18.6366 11.8837 19.0936 11.7118C19.3163 11.6298 19.5663 11.7157 19.6835 11.9228L20.0038 12.4814C20.4139 12.4071 20.8319 12.4071 21.2421 12.4814L21.5624 11.9228C21.6796 11.7157 21.9296 11.6298 22.1522 11.7118C22.6132 11.8837 23.035 12.1298 23.4061 12.4384C23.5858 12.5868 23.6327 12.8485 23.5155 13.0517L23.1952 13.6103C23.4647 13.9228 23.6757 14.286 23.8163 14.6806H24.4608C24.6952 14.6806 24.8983 14.8485 24.9374 15.0829C25.0155 15.5517 25.0194 16.0439 24.9374 16.5321C24.8983 16.7665 24.6952 16.9384 24.4608 16.9384H23.8163C23.6757 17.3329 23.4647 17.6962 23.1952 18.0087L23.5155 18.5673C23.6327 18.7704 23.5897 19.0321 23.4061 19.1806C23.035 19.4892 22.6093 19.7353 22.1522 19.9071C21.9296 19.9892 21.6796 19.9032 21.5624 19.6962L21.2421 19.1376C20.8358 19.2118 20.4139 19.2118 20.0038 19.1376ZM19.5936 16.8368C21.0975 17.9931 22.8124 16.2782 21.6561 14.7743C20.1522 13.6181 18.4374 15.3329 19.5936 16.8368Z" fill="white"/>
</g>
<defs>
<clipPath id="clip0">
<rect width="25" height="20" fill="white"/>
</clipPath>
</defs>
</svg>
