<svg width="26" height="30" viewBox="0 0 26 30" fill="none" xmlns="http://www.w3.org/2000/svg">
<g clip-path="url(#clip0)">
<path d="M12.8571 15C16.9152 15 20.2041 11.6426 20.2041 7.5C20.2041 3.35742 16.9152 0 12.8571 0C8.79911 0 5.5102 3.35742 5.5102 7.5C5.5102 11.6426 8.79911 15 12.8571 15ZM18 16.875H17.0415C15.7672 17.4727 14.3495 17.8125 12.8571 17.8125C11.3648 17.8125 9.95281 17.4727 8.67283 16.875H7.71429C3.45536 16.875 0 20.4023 0 24.75V27.1875C0 28.7402 1.23406 30 2.7551 30H22.9592C24.4802 30 25.7143 28.7402 25.7143 27.1875V24.75C25.7143 20.4023 22.2589 16.875 18 16.875Z" fill="white"/>
</g>
<defs>
<clipPath id="clip0">
<rect width="25.7143" height="30" fill="white"/>
</clipPath>
</defs>
</svg>
